<?xml version="1.0"?><svg data-name="Layer 1" id="Layer_1" viewBox="0 0 20 20" xmlns="http://www.w3.org/2000/svg"><defs><style>.cls-1{fill:#f79f20;}.cls-2{fill:#003d52;}.cls-3{fill:#fbc27a;}.cls-4{fill:#ed4d67;}</style></defs><path class="cls-1" d="M4.64,9.1a5.6,5.6,0,0,0-.27,1.07A5.38,5.38,0,0,0,4.51,13v0A4,4,0,0,0,5,14,2.51,2.51,0,0,1,3,9.44,2.4,2.4,0,0,1,4.64,9.1Z"/><path class="cls-2" d="M4.25,14.36A2.77,2.77,0,0,1,1.56,11,2.83,2.83,0,0,1,2.82,9.22a2.62,2.62,0,0,1,1.86-.36A.21.21,0,0,1,4.85,9a.24.24,0,0,1,0,.2,5.87,5.87,0,0,0-.27,1,5.35,5.35,0,0,0,.13,2.68,4.39,4.39,0,0,0,.45,1,.24.24,0,0,1,0,.22.26.26,0,0,1-.16.15A2.82,2.82,0,0,1,4.25,14.36Zm0-5a2.18,2.18,0,0,0-1.14.33,2.29,2.29,0,0,0-1,1.42,2.25,2.25,0,0,0,2.54,2.76,4.89,4.89,0,0,1-.3-.75.08.08,0,0,1,0,0,5.74,5.74,0,0,1-.15-2.92,4.73,4.73,0,0,1,.19-.8Z"/><path class="cls-1" d="M10.44,17.34l-.53-.62A5.77,5.77,0,0,1,5,14.09L5,14a3.81,3.81,0,0,1-.45-1l0,0a5.49,5.49,0,0,1-.13-2.79,5.42,5.42,0,0,1,.27-1.07,7.55,7.55,0,0,1,7.69-4.73h0c.17,0,.35,0,.51.09a2.09,2.09,0,0,1,.34.08h0l.16.05c.23.07.46.14.68.23h0l.62.31h0a5.07,5.07,0,0,1,.54.36,3.65,3.65,0,0,1,.36.31.79.79,0,0,1,.2.17V6a4,4,0,0,1,.71.86L16.6,7l.13.23V15"/><path class="cls-2" d="M10.44,17.58a.24.24,0,0,1-.19-.08L9.79,17a6,6,0,0,1-5-2.74l-.06-.1a4.44,4.44,0,0,1-.46-1l0-.06a5.85,5.85,0,0,1-.14-2.92A6.55,6.55,0,0,1,4.4,9a7.8,7.8,0,0,1,8-4.89l.22,0a2,2,0,0,1,.35.06,3.15,3.15,0,0,1,.36.09h0l.17,0c.21.07.44.13.66.22l0,0,.63.31,0,0h0a4.58,4.58,0,0,1,.56.38l.37.31a1.07,1.07,0,0,1,.23.2l0,0a4.35,4.35,0,0,1,.72.88l0,.08a2.18,2.18,0,0,1,.14.25.27.27,0,0,1,0,.12V15a.25.25,0,0,1-.5,0V7.25l-.09-.16L16.34,7a3.71,3.71,0,0,0-.67-.81.18.18,0,0,1-.05-.07L15.51,6l-.06,0c-.1-.1-.21-.19-.33-.29a5,5,0,0,0-.51-.33l0,0c-.18-.1-.38-.19-.57-.28h0c-.22-.09-.44-.16-.66-.23l-.09,0-.08,0h-.05a1.1,1.1,0,0,0-.26-.06c-.15,0-.25,0-.36-.07l-.18,0A7.32,7.32,0,0,0,4.87,9.2a5.36,5.36,0,0,0-.25,1,5.36,5.36,0,0,0,.1,2.65.13.13,0,0,1,0,.07,3.72,3.72,0,0,0,.42.94l.06.1a5.46,5.46,0,0,0,4.67,2.5.31.31,0,0,1,.19.09l.53.62a.25.25,0,0,1,0,.36A.22.22,0,0,1,10.44,17.58Z"/><ellipse class="cls-3" cx="10.62" cy="10.21" rx="4.01" ry="2.77" transform="translate(-3.78 7.08) rotate(-31.62)"/><path class="cls-2" d="M9.43,13.62H9.22A2.69,2.69,0,0,1,7,12.45,2.69,2.69,0,0,1,7,9.93,5.31,5.31,0,0,1,9,7.64a5.31,5.31,0,0,1,3-.83A2.65,2.65,0,0,1,14.25,8h0a2.64,2.64,0,0,1,0,2.51,5.25,5.25,0,0,1-2.09,2.29A5.31,5.31,0,0,1,9.43,13.62ZM11.81,7.3a4.86,4.86,0,0,0-2.51.77,4.76,4.76,0,0,0-1.89,2.06,2.17,2.17,0,0,0,0,2,2.18,2.18,0,0,0,1.82.94,4.85,4.85,0,0,0,2.7-.76,4.87,4.87,0,0,0,1.9-2.07,2.2,2.2,0,0,0,0-2h0A2.18,2.18,0,0,0,12,7.31Z"/><ellipse class="cls-2" cx="9.88" cy="9" rx="0.75" ry="0.52" transform="translate(-3.25 6.51) rotate(-31.62)"/><path class="cls-1" d="M16.73,3.64v3a1.24,1.24,0,0,1-.18.22A4,4,0,0,0,15.84,6l-.21-.19a3.65,3.65,0,0,0-.36-.31,5.07,5.07,0,0,0-.54-.36h0a5.12,5.12,0,0,0-.62-.31h0a3.71,3.71,0,0,0-.66-.24l-.22,0a2.09,2.09,0,0,0-.34-.08,5,5,0,0,0-.52-.07s0,0,0,0A2.44,2.44,0,0,1,13.4,3,2.51,2.51,0,0,1,16.73,3.64Z"/><path class="cls-2" d="M16.55,7.12h0A.23.23,0,0,1,16.34,7a3.71,3.71,0,0,0-.67-.81L15.47,6c-.12-.12-.23-.21-.35-.31a5,5,0,0,0-.51-.33l0,0A4,4,0,0,0,14,5.08l-.06,0a3.16,3.16,0,0,0-.61-.22l-.19,0-.32-.07-.09,0a3.34,3.34,0,0,0-.43,0,.25.25,0,0,1-.24-.25.2.2,0,0,1,0-.11,2.71,2.71,0,0,1,1.15-1.5,2.76,2.76,0,0,1,3.66.7.24.24,0,0,1,.05.14v3a.22.22,0,0,1,0,.13,1.2,1.2,0,0,1-.21.26A.24.24,0,0,1,16.55,7.12ZM14.86,4.94a4.58,4.58,0,0,1,.56.38,3.09,3.09,0,0,1,.39.33l.21.19a3.74,3.74,0,0,1,.46.5V3.72a2.27,2.27,0,0,0-3-.5,2.16,2.16,0,0,0-.84,1l.15,0h.07a2.67,2.67,0,0,1,.38.09h0a.71.71,0,0,1,.2.05,3.15,3.15,0,0,1,.65.23h0l0,0a5.8,5.8,0,0,1,.61.3l0,0Z"/><path class="cls-2" d="M4.24,10.66a3.78,3.78,0,0,0,.1,1.89.93.93,0,0,1-1-.43,1,1,0,0,1,.88-1.46Z"/><path class="cls-2" d="M13.83,4.76a3.7,3.7,0,0,1,1.64.94.93.93,0,0,0,.06-1.07,1,1,0,0,0-1.33-.31A.93.93,0,0,0,13.83,4.76Z"/><path class="cls-2" d="M9.27,10.9a1.33,1.33,0,0,1-.28,0,1.14,1.14,0,0,1-.71-.52.25.25,0,0,1,.42-.26.64.64,0,0,0,.41.29.62.62,0,0,0,.5-.08.67.67,0,0,0,.3-.41.65.65,0,0,0-.08-.49.25.25,0,0,1,.08-.35.25.25,0,0,1,.34.08,1.18,1.18,0,0,1,.14.88,1.15,1.15,0,0,1-1.12.89Z"/><path class="cls-2" d="M10.82,10a1.16,1.16,0,0,1-1-.55.25.25,0,0,1,.08-.35.25.25,0,0,1,.34.08.66.66,0,0,0,.41.3.67.67,0,0,0,.5-.08.64.64,0,0,0,.29-.41.59.59,0,0,0-.08-.5.25.25,0,0,1,.09-.34.24.24,0,0,1,.34.08,1.16,1.16,0,0,1-.38,1.6A1.21,1.21,0,0,1,10.82,10Z"/><line class="cls-4" x1="6.65" x2="7.24" y1="9.03" y2="8.67"/><path class="cls-2" d="M6.65,9.28a.26.26,0,0,1-.22-.13.25.25,0,0,1,.09-.34l.59-.36a.25.25,0,0,1,.34.09.24.24,0,0,1-.08.34l-.59.36A.33.33,0,0,1,6.65,9.28Z"/><line class="cls-4" x1="10.76" x2="11.35" y1="6.49" y2="6.13"/><path class="cls-2" d="M10.76,6.74a.24.24,0,0,1-.21-.12.24.24,0,0,1,.08-.34l.6-.36a.25.25,0,0,1,.25.43l-.59.36A.28.28,0,0,1,10.76,6.74Z"/><path class="cls-2" d="M10.14,9.73A.25.25,0,0,1,10,9.26a.28.28,0,0,1,.37.08.22.22,0,0,1-.07.32l-.05,0A.19.19,0,0,1,10.14,9.73Z"/><path class="cls-2" d="M16.73,18.63a.25.25,0,0,1-.25-.25V1.62a.25.25,0,0,1,.5,0V18.38A.25.25,0,0,1,16.73,18.63Z"/><path class="cls-1" d="M14.49,14s.88-1.88,1.69-2.3,2.87.14,1.77,1.91A5.33,5.33,0,0,1,16.75,15"/><path class="cls-2" d="M16.75,15.23a.23.23,0,0,1-.19-.1.24.24,0,0,1,0-.35,5.12,5.12,0,0,0,1.14-1.28c.23-.38.44-.91.08-1.29a1.48,1.48,0,0,0-1.53-.27,6,6,0,0,0-1.57,2.19.27.27,0,0,1-.34.12.25.25,0,0,1-.12-.33,6.5,6.5,0,0,1,1.8-2.42,2,2,0,0,1,2.13.37c.26.27.6.89,0,1.89a5.44,5.44,0,0,1-1.26,1.41A.25.25,0,0,1,16.75,15.23Z"/></svg>
