<?xml version="1.0"?><svg data-name="Layer 1" id="Layer_1" viewBox="0 0 20 20" xmlns="http://www.w3.org/2000/svg"><defs><style>.cls-1{fill:#f79f20;}.cls-2{fill:#003d52;}.cls-3{fill:#fbc27a;}.cls-4{fill:#ed4d67;}</style></defs><path class="cls-1" d="M5.49,7.66a6.48,6.48,0,0,0-.8.76,5.63,5.63,0,0,0-1.34,2.45v0A4.06,4.06,0,0,0,3.2,12a2.51,2.51,0,0,1,.68-4.94A2.38,2.38,0,0,1,5.49,7.66Z"/><path class="cls-2" d="M3.2,12.25H3.14a2.76,2.76,0,0,1,.74-5.43,2.64,2.64,0,0,1,1.77.66.25.25,0,0,1,.09.19.34.34,0,0,1-.09.19,5.43,5.43,0,0,0-.76.73,5.2,5.2,0,0,0-1.3,2.35A4.56,4.56,0,0,0,3.45,12a.25.25,0,0,1-.09.2A.3.3,0,0,1,3.2,12.25Zm.68-4.94A2.26,2.26,0,0,0,3,11.66a4.31,4.31,0,0,1,.13-.8s0,0,0,0a5.67,5.67,0,0,1,1.4-2.57,5.25,5.25,0,0,1,.58-.58A2.13,2.13,0,0,0,3.88,7.31Z"/><path class="cls-1" d="M6,17.86v-1A5.74,5.74,0,0,1,3.2,12.1V12a4.06,4.06,0,0,1,.15-1.1v0A5.63,5.63,0,0,1,4.69,8.42a6.48,6.48,0,0,1,.8-.76A7.42,7.42,0,0,1,10,6.17a7.42,7.42,0,0,1,4.51,1.49,6.48,6.48,0,0,1,.8.76,5.63,5.63,0,0,1,1.34,2.45v0a4,4,0,0,1,.14,1.1v.1A5.73,5.73,0,0,1,14,16.9v1"/><path class="cls-2" d="M14,18.11a.25.25,0,0,1-.25-.25v-1a.25.25,0,0,1,.12-.21,5.52,5.52,0,0,0,2.66-4.59V12a4,4,0,0,0-.13-1,.13.13,0,0,1,0-.06,5.23,5.23,0,0,0-1.28-2.31,6.21,6.21,0,0,0-.77-.74,7.33,7.33,0,0,0-8.71,0,5.28,5.28,0,0,0-.75.72,5.2,5.2,0,0,0-1.3,2.35A4.56,4.56,0,0,0,3.45,12v.1a5.53,5.53,0,0,0,2.67,4.59.27.27,0,0,1,.12.21v1a.25.25,0,0,1-.5,0V17A6,6,0,0,1,3,12.1V12a4.41,4.41,0,0,1,.15-1.14s0,0,0,0a5.67,5.67,0,0,1,1.4-2.57,6.33,6.33,0,0,1,.82-.79,7.84,7.84,0,0,1,9.33,0,5.49,5.49,0,0,1,.84.81,5.68,5.68,0,0,1,1.39,2.55s0,0,0,0A4.34,4.34,0,0,1,17,12v.1A6,6,0,0,1,14.26,17v.82A.25.25,0,0,1,14,18.11Z"/><ellipse class="cls-3" cx="10" cy="11.74" rx="4.01" ry="2.77"/><path class="cls-2" d="M10,14.75c-2.35,0-4.26-1.35-4.26-3s1.91-3,4.26-3,4.26,1.35,4.26,3S12.35,14.75,10,14.75Zm0-5.53c-2.07,0-3.76,1.13-3.76,2.52S7.93,14.25,10,14.25s3.76-1.12,3.76-2.51S12.08,9.22,10,9.22Z"/><ellipse class="cls-2" cx="10" cy="10.31" rx="0.75" ry="0.52"/><path class="cls-1" d="M18.67,9.58A2.5,2.5,0,0,1,16.79,12a4,4,0,0,0-.14-1.1,5.54,5.54,0,0,0-1.32-2.48,6.45,6.45,0,0,0-.82-.74,2.51,2.51,0,0,1,4.16,1.9Z"/><path class="cls-2" d="M16.79,12.25a.3.3,0,0,1-.15-.05.26.26,0,0,1-.1-.2,4,4,0,0,0-.13-1,5.35,5.35,0,0,0-1.26-2.37,5.83,5.83,0,0,0-.79-.71.26.26,0,0,1-.1-.19.27.27,0,0,1,.09-.2,2.7,2.7,0,0,1,1.8-.68,2.78,2.78,0,0,1,2.77,2.77,2.74,2.74,0,0,1-2.06,2.66ZM17,12h0ZM14.92,7.68a6.47,6.47,0,0,1,.59.58,5.64,5.64,0,0,1,1.38,2.58,3.8,3.8,0,0,1,.14.82,2.24,2.24,0,0,0,1.39-2.08,2.27,2.27,0,0,0-2.27-2.27A2.22,2.22,0,0,0,14.92,7.68Z"/><path class="cls-2" d="M4.33,8.78a3.72,3.72,0,0,0-.91,1.66.93.93,0,0,1-.6-.88,1,1,0,0,1,1-1A.89.89,0,0,1,4.33,8.78Z"/><path class="cls-2" d="M15.59,8.78a3.72,3.72,0,0,1,.91,1.66.93.93,0,0,0,.6-.88,1,1,0,0,0-1-1A.89.89,0,0,0,15.59,8.78Z"/><path class="cls-2" d="M9.09,11.78a1.16,1.16,0,0,1-1.16-1.16.25.25,0,1,1,.5,0,.66.66,0,1,0,1.32,0,.25.25,0,1,1,.5,0A1.16,1.16,0,0,1,9.09,11.78Z"/><path class="cls-2" d="M10.91,11.78a1.16,1.16,0,0,1-1.16-1.16.25.25,0,1,1,.5,0,.66.66,0,1,0,1.32,0,.25.25,0,1,1,.5,0A1.16,1.16,0,0,1,10.91,11.78Z"/><line class="cls-4" x1="7.24" x2="7.93" y1="8.64" y2="8.65"/><path class="cls-2" d="M7.93,8.9H7.24a.25.25,0,0,1,0-.5h.69a.25.25,0,0,1,0,.5Z"/><line class="cls-4" x1="12.07" x2="12.76" y1="8.64" y2="8.65"/><path class="cls-2" d="M12.76,8.9h-.69a.25.25,0,0,1,0-.5h.69a.25.25,0,0,1,0,.5Z"/><path class="cls-4" d="M11.11,2.24A.91.91,0,0,0,10,2.47a.91.91,0,0,0-1.11-.23,1,1,0,0,0,0,1.38c.15.21.64.92,1.14.92s1-.71,1.14-.92A1,1,0,0,0,11.11,2.24Z"/><path class="cls-2" d="M10,4.79c-.43,0-.87-.34-1.35-1a1.54,1.54,0,0,1-.28-1.11A.94.94,0,0,1,8.75,2,1.08,1.08,0,0,1,10,2.15,1.08,1.08,0,0,1,11.25,2h0a1.25,1.25,0,0,1,.1,1.72C10.87,4.45,10.43,4.79,10,4.79Zm-.74-2.4A.44.44,0,0,0,9,2.45a.41.41,0,0,0-.16.29,1,1,0,0,0,.19.73c.5.71.8.82.94.82s.44-.11.94-.82c.26-.38.28-.85,0-1a.68.68,0,0,0-.8.2.23.23,0,0,1-.34,0A.87.87,0,0,0,9.26,2.39Z"/><path class="cls-1" d="M7.4,17.68c-.12-2.1-1.23-2.9-2.35-3.15s-2.94,1.21-1.37,2.29c.6.41.87.12.64,1"/><path class="cls-2" d="M4.32,18.11H4.26a.25.25,0,0,1-.18-.31c.09-.35.08-.44.07-.47L4,17.27A2,2,0,0,1,3.54,17a1.26,1.26,0,0,1-.62-1.62A2.12,2.12,0,0,1,5.1,14.29c1.09.24,2.41,1,2.55,3.37a.25.25,0,0,1-.23.27.26.26,0,0,1-.27-.24c-.09-1.64-.82-2.62-2.16-2.91a1.6,1.6,0,0,0-1.61.82c-.16.36,0,.7.44,1a1.44,1.44,0,0,0,.39.2c.46.2.53.42.35,1.12A.25.25,0,0,1,4.32,18.11Z"/><path class="cls-1" d="M12.6,17.68c.12-2.1,1.23-2.9,2.35-3.15s2.94,1.21,1.37,2.29c-.6.41-.87.12-.64,1"/><path class="cls-2" d="M15.68,18.11a.25.25,0,0,1-.24-.18c-.18-.7-.11-.92.35-1.12a1.44,1.44,0,0,0,.39-.2c.45-.31.6-.65.44-1A1.6,1.6,0,0,0,15,14.78c-1.34.29-2.07,1.27-2.16,2.91a.27.27,0,0,1-.27.24.25.25,0,0,1-.23-.27c.14-2.35,1.46-3.13,2.55-3.37a2.13,2.13,0,0,1,2.18,1.11A1.26,1.26,0,0,1,16.46,17a2.21,2.21,0,0,1-.47.25l-.15.07a1.6,1.6,0,0,0,.08.46.25.25,0,0,1-.18.31Z"/><path class="cls-2" d="M18.21,18.11H1.79a.25.25,0,0,1-.25-.25.25.25,0,0,1,.25-.25H18.21a.25.25,0,0,1,.25.25A.25.25,0,0,1,18.21,18.11Z"/></svg>
